<?xml version="1.0" encoding="UTF-8" standalone="no"?>
<!-- Created with Inkscape (http://www.inkscape.org/) -->

<svg
   xmlns:dc="http://purl.org/dc/elements/1.1/"
   xmlns:cc="http://creativecommons.org/ns#"
   xmlns:rdf="http://www.w3.org/1999/02/22-rdf-syntax-ns#"
   xmlns:svg="http://www.w3.org/2000/svg"
   xmlns="http://www.w3.org/2000/svg"
   xmlns:sodipodi="http://sodipodi.sourceforge.net/DTD/sodipodi-0.dtd"
   xmlns:inkscape="http://www.inkscape.org/namespaces/inkscape"
   width="257.14893mm"
   height="241.95331mm"
   viewBox="0 0 911.15761 857.31486"
   id="svg2"
   version="1.1"
   inkscape:version="0.91 r13725"
   sodipodi:docname="simple_countries.svg">
  <defs
     id="defs4" />
  <sodipodi:namedview
     id="base"
     pagecolor="#ffffff"
     bordercolor="#666666"
     borderopacity="1.0"
     inkscape:pageopacity="0.0"
     inkscape:pageshadow="2"
     inkscape:zoom="0.7"
     inkscape:cx="257.68768"
     inkscape:cy="409.67553"
     inkscape:document-units="px"
     inkscape:current-layer="layer1"
     showgrid="false"
     fit-margin-top="0"
     fit-margin-left="0"
     fit-margin-right="0"
     fit-margin-bottom="0"
     showguides="false"
     inkscape:snap-page="true"
     inkscape:snap-grids="false"
     inkscape:window-width="1855"
     inkscape:window-height="1056"
     inkscape:window-x="65"
     inkscape:window-y="24"
     inkscape:window-maximized="1">
    <inkscape:grid
       type="xygrid"
       id="grid12480"
       originx="-1.0101526"
       originy="-10.406161" />
  </sodipodi:namedview>
  <metadata
     id="metadata7">
    <rdf:RDF>
      <cc:Work
         rdf:about="">
        <dc:format>image/svg+xml</dc:format>
        <dc:type
           rdf:resource="http://purl.org/dc/dcmitype/StillImage" />
        <dc:title></dc:title>
      </cc:Work>
    </rdf:RDF>
  </metadata>
  <g
     inkscape:groupmode="layer"
     id="layer2"
     inkscape:label="background"
     style="display:inline"
     transform="translate(-1.0101526,-0.37747711)">
    <rect
       transform="translate(-20.235512,-249.22819)"
       y="677.60565"
       x="21.245665"
       height="429.31488"
       width="911.15759"
       id="rect12485"
       style="fill:#e31e1e;fill-opacity:0.15686275;stroke:none;stroke-width:9.10000038;stroke-miterlimit:4;stroke-dasharray:none;stroke-opacity:1" />
    <rect
       transform="translate(-20.235512,-249.22819)"
       style="fill:#1ee325;fill-opacity:0.15686275;stroke:none;stroke-width:9.10000038;stroke-miterlimit:4;stroke-dasharray:none;stroke-opacity:1"
       id="rect12478"
       width="911.15759"
       height="429.31488"
       x="21.245665"
       y="249.60567" />
  </g>
  <g
     inkscape:label="Layer 1"
     inkscape:groupmode="layer"
     id="layer1"
     transform="translate(-21.245665,-249.60567)">
    <g
       id="g12272"
       transform="translate(6.294305,-48)">
      <path
         id="rect3554"
         d="m 559.90206,947.09998 160.34989,0 c 3.83652,0 6.92513,3.0886 6.92513,6.92513 l 0,74.94559 c 0,3.8365 -3.08861,6.9251 -6.92513,6.9251 l -160.34989,0 c -3.83652,0 -6.92513,-3.0886 -6.92513,-6.9251 l 0,-74.94559 c 0,-3.83653 3.08861,-6.92513 6.92513,-6.92513 z"
         style="fill:#ececec;fill-rule:evenodd;stroke:#000000;stroke-width:1.09755027px;stroke-linecap:butt;stroke-linejoin:miter;stroke-opacity:1"
         inkscape:connector-curvature="0" />
      <path
         id="rect3558"
         d="m 557.45276,951.46729 165.24849,0 0,80.06131 -165.24849,0 z"
         style="fill:#b22234"
         inkscape:connector-curvature="0" />
      <path
         id="path3560"
         d="m 557.45276,960.70512 165.24848,0 m 0,12.31713 -165.24848,0 m 0,12.31712 165.24848,0 m 0,12.31712 -165.24848,0 m 0,12.31711 165.24848,0 m 0,12.3171 -165.24848,0"
         inkscape:connector-curvature="0"
         style="stroke:#ffffff;stroke-width:6.41889" />
      <path
         id="rect3562"
         d="m 557.45276,951.46729 66.09939,0 0,43.10993 -66.09939,0 z"
         style="fill:#3c3b6e"
         inkscape:connector-curvature="0" />
      <path
         inkscape:connector-curvature="0"
         id="path3574"
         d="m 562.96104,953.31485 1.57297,4.45638 -4.11808,-2.7542 5.09022,0 -4.11807,2.7542 z"
         style="fill:#ffffff" />
      <path
         d="m 562.96104,961.93684 1.57297,4.45637 -4.11808,-2.75419 5.09022,0 -4.11807,2.75419 z"
         id="use3576"
         inkscape:connector-curvature="0"
         style="fill:#ffffff" />
      <path
         d="m 562.96104,970.55882 1.57297,4.45638 -4.11808,-2.75419 5.09022,0 -4.11807,2.75419 z"
         id="use3578"
         inkscape:connector-curvature="0"
         style="fill:#ffffff" />
      <path
         d="m 562.96104,979.18081 1.57297,4.45638 -4.11808,-2.7542 5.09022,0 -4.11807,2.7542 z"
         id="use3580"
         inkscape:connector-curvature="0"
         style="fill:#ffffff" />
      <path
         inkscape:connector-curvature="0"
         id="use3582"
         d="m 562.96104,987.8028 1.57297,4.45637 -4.11808,-2.75419 5.09022,0 -4.11807,2.75419 z"
         style="fill:#ffffff" />
      <path
         inkscape:connector-curvature="0"
         id="path5018"
         d="m 568.46932,957.62584 1.57297,4.45638 -4.11808,-2.7542 5.09022,0 -4.11807,2.7542 z"
         style="fill:#ffffff" />
      <path
         inkscape:connector-curvature="0"
         id="use5020"
         d="m 568.46932,966.24783 1.57297,4.45637 -4.11808,-2.75419 5.09022,0 -4.11807,2.75419 z"
         style="fill:#ffffff" />
      <path
         inkscape:connector-curvature="0"
         id="use5022"
         d="m 568.46932,974.86981 1.57297,4.45638 -4.11808,-2.75419 5.09022,0 -4.11807,2.75419 z"
         style="fill:#ffffff" />
      <path
         inkscape:connector-curvature="0"
         id="use5024"
         d="m 568.46932,983.4918 1.57297,4.45638 -4.11808,-2.7542 5.09022,0 -4.11807,2.7542 z"
         style="fill:#ffffff" />
      <path
         d="m 573.97761,953.31485 1.57297,4.45638 -4.11808,-2.7542 5.09022,0 -4.11807,2.7542 z"
         id="path4734"
         inkscape:connector-curvature="0"
         style="fill:#ffffff" />
      <path
         d="m 573.97761,961.93684 1.57297,4.45637 -4.11808,-2.75419 5.09022,0 -4.11807,2.75419 z"
         id="use4736"
         inkscape:connector-curvature="0"
         style="fill:#ffffff" />
      <path
         d="m 573.97761,970.55882 1.57297,4.45638 -4.11808,-2.75419 5.09022,0 -4.11807,2.75419 z"
         id="use4738"
         inkscape:connector-curvature="0"
         style="fill:#ffffff" />
      <path
         d="m 573.97761,979.18081 1.57297,4.45638 -4.11808,-2.7542 5.09022,0 -4.11807,2.7542 z"
         id="use4740"
         inkscape:connector-curvature="0"
         style="fill:#ffffff" />
      <path
         inkscape:connector-curvature="0"
         id="use4742"
         d="m 573.97761,987.8028 1.57297,4.45637 -4.11808,-2.75419 5.09022,0 -4.11807,2.75419 z"
         style="fill:#ffffff" />
      <path
         inkscape:connector-curvature="0"
         id="path5138"
         d="m 579.48589,957.62584 1.57297,4.45638 -4.11808,-2.7542 5.09022,0 -4.11807,2.7542 z"
         style="fill:#ffffff" />
      <path
         inkscape:connector-curvature="0"
         id="use5140"
         d="m 579.48589,966.24783 1.57297,4.45637 -4.11808,-2.75419 5.09022,0 -4.11807,2.75419 z"
         style="fill:#ffffff" />
      <path
         inkscape:connector-curvature="0"
         id="use5142"
         d="m 579.48589,974.86981 1.57297,4.45638 -4.11808,-2.75419 5.09022,0 -4.11807,2.75419 z"
         style="fill:#ffffff" />
      <path
         inkscape:connector-curvature="0"
         id="use5144"
         d="m 579.48589,983.4918 1.57297,4.45638 -4.11808,-2.7542 5.09022,0 -4.11807,2.7542 z"
         style="fill:#ffffff" />
      <path
         d="m 584.99417,953.31485 1.57297,4.45638 -4.11808,-2.7542 5.09022,0 -4.11807,2.7542 z"
         id="path4598"
         inkscape:connector-curvature="0"
         style="fill:#ffffff" />
      <path
         d="m 584.99417,961.93684 1.57297,4.45637 -4.11808,-2.75419 5.09022,0 -4.11807,2.75419 z"
         id="use4600"
         inkscape:connector-curvature="0"
         style="fill:#ffffff" />
      <path
         d="m 584.99417,970.55882 1.57297,4.45638 -4.11808,-2.75419 5.09022,0 -4.11807,2.75419 z"
         id="use4602"
         inkscape:connector-curvature="0"
         style="fill:#ffffff" />
      <path
         d="m 584.99417,979.18081 1.57297,4.45638 -4.11808,-2.7542 5.09022,0 -4.11807,2.7542 z"
         id="use4604"
         inkscape:connector-curvature="0"
         style="fill:#ffffff" />
      <path
         inkscape:connector-curvature="0"
         id="use4606"
         d="m 584.99417,987.8028 1.57297,4.45637 -4.11808,-2.75419 5.09022,0 -4.11807,2.75419 z"
         style="fill:#ffffff" />
      <path
         inkscape:connector-curvature="0"
         id="path5068"
         d="m 590.50245,957.62584 1.57297,4.45638 -4.11808,-2.7542 5.09022,0 -4.11807,2.7542 z"
         style="fill:#ffffff" />
      <path
         inkscape:connector-curvature="0"
         id="use5070"
         d="m 590.50245,966.24783 1.57297,4.45637 -4.11808,-2.75419 5.09022,0 -4.11807,2.75419 z"
         style="fill:#ffffff" />
      <path
         inkscape:connector-curvature="0"
         id="use5072"
         d="m 590.50245,974.86981 1.57297,4.45638 -4.11808,-2.75419 5.09022,0 -4.11807,2.75419 z"
         style="fill:#ffffff" />
      <path
         inkscape:connector-curvature="0"
         id="use5074"
         d="m 590.50245,983.4918 1.57297,4.45638 -4.11808,-2.7542 5.09022,0 -4.11807,2.7542 z"
         style="fill:#ffffff" />
      <path
         d="m 596.01074,953.31485 1.57297,4.45638 -4.11808,-2.7542 5.09022,0 -4.11807,2.7542 z"
         id="path4878"
         inkscape:connector-curvature="0"
         style="fill:#ffffff" />
      <path
         d="m 596.01074,961.93684 1.57297,4.45637 -4.11808,-2.75419 5.09022,0 -4.11807,2.75419 z"
         id="use4880"
         inkscape:connector-curvature="0"
         style="fill:#ffffff" />
      <path
         d="m 596.01074,970.55882 1.57297,4.45638 -4.11808,-2.75419 5.09022,0 -4.11807,2.75419 z"
         id="use4882"
         inkscape:connector-curvature="0"
         style="fill:#ffffff" />
      <path
         d="m 596.01074,979.18081 1.57297,4.45638 -4.11808,-2.7542 5.09022,0 -4.11807,2.7542 z"
         id="use4884"
         inkscape:connector-curvature="0"
         style="fill:#ffffff" />
      <path
         inkscape:connector-curvature="0"
         id="use4886"
         d="m 596.01074,987.8028 1.57297,4.45637 -4.11808,-2.75419 5.09022,0 -4.11807,2.75419 z"
         style="fill:#ffffff" />
      <path
         inkscape:connector-curvature="0"
         id="path5218"
         d="m 601.51902,957.62584 1.57297,4.45638 -4.11808,-2.7542 5.09022,0 -4.11807,2.7542 z"
         style="fill:#ffffff" />
      <path
         inkscape:connector-curvature="0"
         id="use5220"
         d="m 601.51902,966.24783 1.57297,4.45637 -4.11808,-2.75419 5.09022,0 -4.11807,2.75419 z"
         style="fill:#ffffff" />
      <path
         inkscape:connector-curvature="0"
         id="use5222"
         d="m 601.51902,974.86981 1.57297,4.45638 -4.11808,-2.75419 5.09022,0 -4.11807,2.75419 z"
         style="fill:#ffffff" />
      <path
         inkscape:connector-curvature="0"
         id="use5224"
         d="m 601.51902,983.4918 1.57297,4.45638 -4.11808,-2.7542 5.09022,0 -4.11807,2.7542 z"
         style="fill:#ffffff" />
      <path
         inkscape:connector-curvature="0"
         id="path4752"
         d="m 607.0273,953.31485 1.57297,4.45638 -4.11808,-2.7542 5.09022,0 -4.11807,2.7542 z"
         style="fill:#ffffff" />
      <path
         inkscape:connector-curvature="0"
         id="use4754"
         d="m 607.0273,961.93684 1.57297,4.45637 -4.11808,-2.75419 5.09022,0 -4.11807,2.75419 z"
         style="fill:#ffffff" />
      <path
         inkscape:connector-curvature="0"
         id="use4756"
         d="m 607.0273,970.55882 1.57297,4.45638 -4.11808,-2.75419 5.09022,0 -4.11807,2.75419 z"
         style="fill:#ffffff" />
      <path
         inkscape:connector-curvature="0"
         id="use4758"
         d="m 607.0273,979.18081 1.57297,4.45638 -4.11808,-2.7542 5.09022,0 -4.11807,2.7542 z"
         style="fill:#ffffff" />
      <path
         d="m 607.0273,987.8028 1.57297,4.45637 -4.11808,-2.75419 5.09022,0 -4.11807,2.75419 z"
         id="use4760"
         inkscape:connector-curvature="0"
         style="fill:#ffffff" />
      <path
         d="m 612.53558,957.62584 1.57297,4.45638 -4.11808,-2.7542 5.09022,0 -4.11807,2.7542 z"
         id="path5148"
         inkscape:connector-curvature="0"
         style="fill:#ffffff" />
      <path
         d="m 612.53558,966.24783 1.57297,4.45637 -4.11808,-2.75419 5.09022,0 -4.11807,2.75419 z"
         id="use5150"
         inkscape:connector-curvature="0"
         style="fill:#ffffff" />
      <path
         d="m 612.53558,974.86981 1.57297,4.45638 -4.11808,-2.75419 5.09022,0 -4.11807,2.75419 z"
         id="use5152"
         inkscape:connector-curvature="0"
         style="fill:#ffffff" />
      <path
         d="m 612.53558,983.4918 1.57297,4.45638 -4.11808,-2.7542 5.09022,0 -4.11807,2.7542 z"
         id="use5154"
         inkscape:connector-curvature="0"
         style="fill:#ffffff" />
      <path
         d="m 618.04387,953.31485 1.57297,4.45638 -4.11808,-2.7542 5.09022,0 -4.11807,2.7542 z"
         id="path4958"
         inkscape:connector-curvature="0"
         style="fill:#ffffff" />
      <path
         d="m 618.04387,961.93684 1.57297,4.45637 -4.11808,-2.75419 5.09022,0 -4.11807,2.75419 z"
         id="use4960"
         inkscape:connector-curvature="0"
         style="fill:#ffffff" />
      <path
         d="m 618.04387,970.55882 1.57297,4.45638 -4.11808,-2.75419 5.09022,0 -4.11807,2.75419 z"
         id="use4962"
         inkscape:connector-curvature="0"
         style="fill:#ffffff" />
      <path
         d="m 618.04387,979.18081 1.57297,4.45638 -4.11808,-2.7542 5.09022,0 -4.11807,2.7542 z"
         id="use4964"
         inkscape:connector-curvature="0"
         style="fill:#ffffff" />
      <path
         inkscape:connector-curvature="0"
         id="use4966"
         d="m 618.04387,987.8028 1.57297,4.45637 -4.11808,-2.75419 5.09022,0 -4.11807,2.75419 z"
         style="fill:#ffffff" />
      <path
         id="path3640"
         d="M 431.90843,831.67818 640.077,831.49793"
         style="display:inline;fill:none;fill-rule:evenodd;stroke:#000000;stroke-width:1px;stroke-linecap:butt;stroke-linejoin:miter;stroke-opacity:1"
         inkscape:connector-curvature="0" />
      <path
         id="rect3512"
         d="m 264.63341,947.35565 160.34989,0 c 3.83652,0 6.92513,3.08861 6.92513,6.92513 l 0,74.94562 c 0,3.8365 -3.08861,6.9251 -6.92513,6.9251 l -160.34989,0 c -3.83652,0 -6.92513,-3.0886 -6.92513,-6.9251 l 0,-74.94562 c 0,-3.83652 3.08861,-6.92513 6.92513,-6.92513 z"
         style="fill:#ececec;fill-rule:evenodd;stroke:#000000;stroke-width:1.09755027px;stroke-linecap:butt;stroke-linejoin:miter;stroke-opacity:1"
         inkscape:connector-curvature="0" />
      <path
         id="rect4462"
         d="m 264.63341,787.35565 160.34989,0 c 3.83652,0 6.92513,3.08861 6.92513,6.92513 l 0,74.94559 c 0,3.83653 -3.08861,6.92513 -6.92513,6.92513 l -160.34989,0 c -3.83652,0 -6.92513,-3.0886 -6.92513,-6.92513 l 0,-74.94559 c 0,-3.83652 3.08861,-6.92513 6.92513,-6.92513 z"
         style="fill:#ececec;fill-rule:evenodd;stroke:#000000;stroke-width:1.09755027px;stroke-linecap:butt;stroke-linejoin:miter;stroke-opacity:1"
         inkscape:connector-curvature="0" />
      <path
         id="rect4466"
         d="m 262.18411,791.72296 165.24849,0 0,80.06131 -165.24849,0 z"
         style="fill:#b22234"
         inkscape:connector-curvature="0" />
      <path
         id="path4468"
         d="m 262.18411,800.96079 165.24848,0 m 0,12.31713 -165.24848,0 m 0,12.31712 165.24848,0 m 0,12.31712 -165.24848,0 m 0,12.31713 165.24848,0 m 0,12.31712 -165.24848,0"
         inkscape:connector-curvature="0"
         style="stroke:#ffffff;stroke-width:6.41889" />
      <path
         id="rect4470"
         d="m 262.18411,791.72296 66.0994,0 0,43.10994 -66.0994,0 z"
         style="fill:#3c3b6e"
         inkscape:connector-curvature="0" />
      <path
         inkscape:connector-curvature="0"
         id="path4482"
         d="m 267.69239,793.57052 1.57297,4.45638 -4.11808,-2.7542 5.09022,0 -4.11807,2.7542 z"
         style="fill:#ffffff" />
      <path
         d="m 267.69239,802.19251 1.57297,4.45637 -4.11808,-2.75419 5.09022,0 -4.11807,2.75419 z"
         id="use4484"
         inkscape:connector-curvature="0"
         style="fill:#ffffff" />
      <path
         d="m 267.69239,810.81449 1.57297,4.45638 -4.11808,-2.75419 5.09022,0 -4.11807,2.75419 z"
         id="use4486"
         inkscape:connector-curvature="0"
         style="fill:#ffffff" />
      <path
         d="m 267.69239,819.43648 1.57297,4.45638 -4.11808,-2.7542 5.09022,0 -4.11807,2.7542 z"
         id="use4488"
         inkscape:connector-curvature="0"
         style="fill:#ffffff" />
      <path
         inkscape:connector-curvature="0"
         id="use4490"
         d="m 267.69239,828.05847 1.57297,4.45637 -4.11808,-2.75419 5.09022,0 -4.11807,2.75419 z"
         style="fill:#ffffff" />
      <path
         inkscape:connector-curvature="0"
         id="path5028"
         d="m 273.20067,797.88151 1.57297,4.45638 -4.11808,-2.7542 5.09022,0 -4.11807,2.7542 z"
         style="fill:#ffffff" />
      <path
         inkscape:connector-curvature="0"
         id="use5030"
         d="m 273.20067,806.5035 1.57297,4.45637 -4.11808,-2.75419 5.09022,0 -4.11807,2.75419 z"
         style="fill:#ffffff" />
      <path
         inkscape:connector-curvature="0"
         id="use5032"
         d="m 273.20067,815.12548 1.57297,4.45638 -4.11808,-2.75419 5.09022,0 -4.11807,2.75419 z"
         style="fill:#ffffff" />
      <path
         inkscape:connector-curvature="0"
         id="use5034"
         d="m 273.20067,823.74747 1.57297,4.45638 -4.11808,-2.7542 5.09022,0 -4.11807,2.7542 z"
         style="fill:#ffffff" />
      <path
         d="m 278.70896,793.57052 1.57297,4.45638 -4.11808,-2.7542 5.09022,0 -4.11807,2.7542 z"
         id="path4770"
         inkscape:connector-curvature="0"
         style="fill:#ffffff" />
      <path
         d="m 278.70896,802.19251 1.57297,4.45637 -4.11808,-2.75419 5.09022,0 -4.11807,2.75419 z"
         id="use4772"
         inkscape:connector-curvature="0"
         style="fill:#ffffff" />
      <path
         d="m 278.70896,810.81449 1.57297,4.45638 -4.11808,-2.75419 5.09022,0 -4.11807,2.75419 z"
         id="use4774"
         inkscape:connector-curvature="0"
         style="fill:#ffffff" />
      <path
         d="m 278.70896,819.43648 1.57297,4.45638 -4.11808,-2.7542 5.09022,0 -4.11807,2.7542 z"
         id="use4776"
         inkscape:connector-curvature="0"
         style="fill:#ffffff" />
      <path
         inkscape:connector-curvature="0"
         id="use4778"
         d="m 278.70896,828.05847 1.57297,4.45637 -4.11808,-2.75419 5.09022,0 -4.11807,2.75419 z"
         style="fill:#ffffff" />
      <path
         inkscape:connector-curvature="0"
         id="path5158"
         d="m 284.21724,797.88151 1.57297,4.45638 -4.11808,-2.7542 5.09022,0 -4.11807,2.7542 z"
         style="fill:#ffffff" />
      <path
         inkscape:connector-curvature="0"
         id="use5160"
         d="m 284.21724,806.5035 1.57297,4.45637 -4.11808,-2.75419 5.09022,0 -4.11807,2.75419 z"
         style="fill:#ffffff" />
      <path
         inkscape:connector-curvature="0"
         id="use5162"
         d="m 284.21724,815.12548 1.57297,4.45638 -4.11808,-2.75419 5.09022,0 -4.11807,2.75419 z"
         style="fill:#ffffff" />
      <path
         inkscape:connector-curvature="0"
         id="use5164"
         d="m 284.21724,823.74747 1.57297,4.45638 -4.11808,-2.7542 5.09022,0 -4.11807,2.7542 z"
         style="fill:#ffffff" />
      <path
         d="m 289.72552,793.57052 1.57297,4.45638 -4.11808,-2.7542 5.09022,0 -4.11807,2.7542 z"
         id="path4620"
         inkscape:connector-curvature="0"
         style="fill:#ffffff" />
      <path
         d="m 289.72552,802.19251 1.57297,4.45637 -4.11808,-2.75419 5.09022,0 -4.11807,2.75419 z"
         id="use4622"
         inkscape:connector-curvature="0"
         style="fill:#ffffff" />
      <path
         d="m 289.72552,810.81449 1.57297,4.45638 -4.11808,-2.75419 5.09022,0 -4.11807,2.75419 z"
         id="use4624"
         inkscape:connector-curvature="0"
         style="fill:#ffffff" />
      <path
         d="m 289.72552,819.43648 1.57297,4.45638 -4.11808,-2.7542 5.09022,0 -4.11807,2.7542 z"
         id="use4626"
         inkscape:connector-curvature="0"
         style="fill:#ffffff" />
      <path
         inkscape:connector-curvature="0"
         id="use4628"
         d="m 289.72552,828.05847 1.57297,4.45637 -4.11808,-2.75419 5.09022,0 -4.11807,2.75419 z"
         style="fill:#ffffff" />
      <path
         inkscape:connector-curvature="0"
         id="path5078"
         d="m 295.2338,797.88151 1.57297,4.45638 -4.11808,-2.7542 5.09022,0 -4.11807,2.7542 z"
         style="fill:#ffffff" />
      <path
         inkscape:connector-curvature="0"
         id="use5080"
         d="m 295.2338,806.5035 1.57297,4.45637 -4.11808,-2.75419 5.09022,0 -4.11807,2.75419 z"
         style="fill:#ffffff" />
      <path
         inkscape:connector-curvature="0"
         id="use5082"
         d="m 295.2338,815.12548 1.57297,4.45638 -4.11808,-2.75419 5.09022,0 -4.11807,2.75419 z"
         style="fill:#ffffff" />
      <path
         inkscape:connector-curvature="0"
         id="use5084"
         d="m 295.2338,823.74747 1.57297,4.45638 -4.11808,-2.7542 5.09022,0 -4.11807,2.7542 z"
         style="fill:#ffffff" />
      <path
         d="m 300.74209,793.57052 1.57297,4.45638 -4.11808,-2.7542 5.09022,0 -4.11807,2.7542 z"
         id="path4896"
         inkscape:connector-curvature="0"
         style="fill:#ffffff" />
      <path
         d="m 300.74209,802.19251 1.57297,4.45637 -4.11808,-2.75419 5.09022,0 -4.11807,2.75419 z"
         id="use4898"
         inkscape:connector-curvature="0"
         style="fill:#ffffff" />
      <path
         d="m 300.74209,810.81449 1.57297,4.45638 -4.11808,-2.75419 5.09022,0 -4.11807,2.75419 z"
         id="use4900"
         inkscape:connector-curvature="0"
         style="fill:#ffffff" />
      <path
         d="m 300.74209,819.43648 1.57297,4.45638 -4.11808,-2.7542 5.09022,0 -4.11807,2.7542 z"
         id="use4902"
         inkscape:connector-curvature="0"
         style="fill:#ffffff" />
      <path
         inkscape:connector-curvature="0"
         id="use4904"
         d="m 300.74209,828.05847 1.57297,4.45637 -4.11808,-2.75419 5.09022,0 -4.11807,2.75419 z"
         style="fill:#ffffff" />
      <path
         inkscape:connector-curvature="0"
         id="path5228"
         d="m 306.25037,797.88151 1.57297,4.45638 -4.11808,-2.7542 5.09022,0 -4.11807,2.7542 z"
         style="fill:#ffffff" />
      <path
         inkscape:connector-curvature="0"
         id="use5230"
         d="m 306.25037,806.5035 1.57297,4.45637 -4.11808,-2.75419 5.09022,0 -4.11807,2.75419 z"
         style="fill:#ffffff" />
      <path
         inkscape:connector-curvature="0"
         id="use5232"
         d="m 306.25037,815.12548 1.57297,4.45638 -4.11808,-2.75419 5.09022,0 -4.11807,2.75419 z"
         style="fill:#ffffff" />
      <path
         inkscape:connector-curvature="0"
         id="use5234"
         d="m 306.25037,823.74747 1.57297,4.45638 -4.11808,-2.7542 5.09022,0 -4.11807,2.7542 z"
         style="fill:#ffffff" />
      <path
         inkscape:connector-curvature="0"
         id="path4788"
         d="m 311.75865,793.57052 1.57297,4.45638 -4.11808,-2.7542 5.09022,0 -4.11807,2.7542 z"
         style="fill:#ffffff" />
      <path
         inkscape:connector-curvature="0"
         id="use4790"
         d="m 311.75865,802.19251 1.57297,4.45637 -4.11808,-2.75419 5.09022,0 -4.11807,2.75419 z"
         style="fill:#ffffff" />
      <path
         inkscape:connector-curvature="0"
         id="use4792"
         d="m 311.75865,810.81449 1.57297,4.45638 -4.11808,-2.75419 5.09022,0 -4.11807,2.75419 z"
         style="fill:#ffffff" />
      <path
         inkscape:connector-curvature="0"
         id="use4794"
         d="m 311.75865,819.43648 1.57297,4.45638 -4.11808,-2.7542 5.09022,0 -4.11807,2.7542 z"
         style="fill:#ffffff" />
      <path
         d="m 311.75865,828.05847 1.57297,4.45637 -4.11808,-2.75419 5.09022,0 -4.11807,2.75419 z"
         id="use4796"
         inkscape:connector-curvature="0"
         style="fill:#ffffff" />
      <path
         d="m 317.26693,797.88151 1.57297,4.45638 -4.11808,-2.7542 5.09022,0 -4.11807,2.7542 z"
         id="path5168"
         inkscape:connector-curvature="0"
         style="fill:#ffffff" />
      <path
         d="m 317.26693,806.5035 1.57297,4.45637 -4.11808,-2.75419 5.09022,0 -4.11807,2.75419 z"
         id="use5170"
         inkscape:connector-curvature="0"
         style="fill:#ffffff" />
      <path
         d="m 317.26693,815.12548 1.57297,4.45638 -4.11808,-2.75419 5.09022,0 -4.11807,2.75419 z"
         id="use5172"
         inkscape:connector-curvature="0"
         style="fill:#ffffff" />
      <path
         d="m 317.26693,823.74747 1.57297,4.45638 -4.11808,-2.7542 5.09022,0 -4.11807,2.7542 z"
         id="use5174"
         inkscape:connector-curvature="0"
         style="fill:#ffffff" />
      <path
         d="m 322.77522,793.57052 1.57297,4.45638 -4.11808,-2.7542 5.09022,0 -4.11807,2.7542 z"
         id="path4972"
         inkscape:connector-curvature="0"
         style="fill:#ffffff" />
      <path
         d="m 322.77522,802.19251 1.57297,4.45637 -4.11808,-2.75419 5.09022,0 -4.11807,2.75419 z"
         id="use4974"
         inkscape:connector-curvature="0"
         style="fill:#ffffff" />
      <path
         d="m 322.77522,810.81449 1.57297,4.45638 -4.11808,-2.75419 5.09022,0 -4.11807,2.75419 z"
         id="use4976"
         inkscape:connector-curvature="0"
         style="fill:#ffffff" />
      <path
         d="m 322.77522,819.43648 1.57297,4.45638 -4.11808,-2.7542 5.09022,0 -4.11807,2.7542 z"
         id="use4978"
         inkscape:connector-curvature="0"
         style="fill:#ffffff" />
      <path
         inkscape:connector-curvature="0"
         id="use4980"
         d="m 322.77522,828.05847 1.57297,4.45637 -4.11808,-2.75419 5.09022,0 -4.11807,2.75419 z"
         style="fill:#ffffff" />
      <path
         id="rect4504"
         d="m 559.90206,787.09998 160.34989,0 c 3.83652,0 6.92513,3.0886 6.92513,6.92513 l 0,74.94559 c 0,3.83652 -3.08861,6.92513 -6.92513,6.92513 l -160.34989,0 c -3.83652,0 -6.92513,-3.08861 -6.92513,-6.92513 l 0,-74.94559 c 0,-3.83653 3.08861,-6.92513 6.92513,-6.92513 z"
         style="fill:#ececec;fill-rule:evenodd;stroke:#000000;stroke-width:1.09755027px;stroke-linecap:butt;stroke-linejoin:miter;stroke-opacity:1"
         inkscape:connector-curvature="0" />
      <path
         id="rect4508"
         d="m 557.45276,791.46729 165.24849,0 0,80.0613 -165.24849,0 z"
         style="fill:#b22234"
         inkscape:connector-curvature="0" />
      <path
         style="stroke:#ffffff;stroke-width:6.41889"
         inkscape:connector-curvature="0"
         d="m 557.45276,800.70512 165.24848,0 m 0,12.31713 -165.24848,0 m 0,12.31712 165.24848,0 m 0,12.31712 -165.24848,0 m 0,12.31713 165.24848,0 m 0,12.31712 -165.24848,0"
         id="path4510" />
      <path
         id="rect4512"
         d="m 557.45276,791.46729 66.09939,0 0,43.10993 -66.09939,0 z"
         style="fill:#3c3b6e"
         inkscape:connector-curvature="0" />
      <path
         d="m 562.96104,793.31485 1.57297,4.45638 -4.11808,-2.7542 5.09022,0 -4.11807,2.7542 z"
         id="path4524"
         inkscape:connector-curvature="0"
         style="fill:#ffffff" />
      <path
         d="m 562.96104,801.93684 1.57297,4.45637 -4.11808,-2.75419 5.09022,0 -4.11807,2.75419 z"
         id="use4526"
         inkscape:connector-curvature="0"
         style="fill:#ffffff" />
      <path
         d="m 562.96104,810.55882 1.57297,4.45638 -4.11808,-2.75419 5.09022,0 -4.11807,2.75419 z"
         id="use4528"
         inkscape:connector-curvature="0"
         style="fill:#ffffff" />
      <path
         d="m 562.96104,819.18081 1.57297,4.45638 -4.11808,-2.7542 5.09022,0 -4.11807,2.7542 z"
         id="use4530"
         inkscape:connector-curvature="0"
         style="fill:#ffffff" />
      <path
         inkscape:connector-curvature="0"
         id="use4532"
         d="m 562.96104,827.8028 1.57297,4.45637 -4.11808,-2.75419 5.09022,0 -4.11807,2.75419 z"
         style="fill:#ffffff" />
      <path
         inkscape:connector-curvature="0"
         id="path5038"
         d="m 568.46932,797.62584 1.57297,4.45638 -4.11808,-2.7542 5.09022,0 -4.11807,2.7542 z"
         style="fill:#ffffff" />
      <path
         inkscape:connector-curvature="0"
         id="use5040"
         d="m 568.46932,806.24783 1.57297,4.45637 -4.11808,-2.75419 5.09022,0 -4.11807,2.75419 z"
         style="fill:#ffffff" />
      <path
         inkscape:connector-curvature="0"
         id="use5042"
         d="m 568.46932,814.86981 1.57297,4.45638 -4.11808,-2.75419 5.09022,0 -4.11807,2.75419 z"
         style="fill:#ffffff" />
      <path
         inkscape:connector-curvature="0"
         id="use5044"
         d="m 568.46932,823.4918 1.57297,4.45638 -4.11808,-2.7542 5.09022,0 -4.11807,2.7542 z"
         style="fill:#ffffff" />
      <path
         d="m 573.97761,793.31485 1.57297,4.45638 -4.11808,-2.7542 5.09022,0 -4.11807,2.7542 z"
         id="path4806"
         inkscape:connector-curvature="0"
         style="fill:#ffffff" />
      <path
         d="m 573.97761,801.93684 1.57297,4.45637 -4.11808,-2.75419 5.09022,0 -4.11807,2.75419 z"
         id="use4808"
         inkscape:connector-curvature="0"
         style="fill:#ffffff" />
      <path
         d="m 573.97761,810.55882 1.57297,4.45638 -4.11808,-2.75419 5.09022,0 -4.11807,2.75419 z"
         id="use4810"
         inkscape:connector-curvature="0"
         style="fill:#ffffff" />
      <path
         d="m 573.97761,819.18081 1.57297,4.45638 -4.11808,-2.7542 5.09022,0 -4.11807,2.7542 z"
         id="use4812"
         inkscape:connector-curvature="0"
         style="fill:#ffffff" />
      <path
         inkscape:connector-curvature="0"
         id="use4814"
         d="m 573.97761,827.8028 1.57297,4.45637 -4.11808,-2.75419 5.09022,0 -4.11807,2.75419 z"
         style="fill:#ffffff" />
      <path
         inkscape:connector-curvature="0"
         id="path5178"
         d="m 579.48589,797.62584 1.57297,4.45638 -4.11808,-2.7542 5.09022,0 -4.11807,2.7542 z"
         style="fill:#ffffff" />
      <path
         inkscape:connector-curvature="0"
         id="use5180"
         d="m 579.48589,806.24783 1.57297,4.45637 -4.11808,-2.75419 5.09022,0 -4.11807,2.75419 z"
         style="fill:#ffffff" />
      <path
         inkscape:connector-curvature="0"
         id="use5182"
         d="m 579.48589,814.86981 1.57297,4.45638 -4.11808,-2.75419 5.09022,0 -4.11807,2.75419 z"
         style="fill:#ffffff" />
      <path
         inkscape:connector-curvature="0"
         id="use5184"
         d="m 579.48589,823.4918 1.57297,4.45638 -4.11808,-2.7542 5.09022,0 -4.11807,2.7542 z"
         style="fill:#ffffff" />
      <path
         d="m 584.99417,793.31485 1.57297,4.45638 -4.11808,-2.7542 5.09022,0 -4.11807,2.7542 z"
         id="path4642"
         inkscape:connector-curvature="0"
         style="fill:#ffffff" />
      <path
         d="m 584.99417,801.93684 1.57297,4.45637 -4.11808,-2.75419 5.09022,0 -4.11807,2.75419 z"
         id="use4644"
         inkscape:connector-curvature="0"
         style="fill:#ffffff" />
      <path
         d="m 584.99417,810.55882 1.57297,4.45638 -4.11808,-2.75419 5.09022,0 -4.11807,2.75419 z"
         id="use4646"
         inkscape:connector-curvature="0"
         style="fill:#ffffff" />
      <path
         d="m 584.99417,819.18081 1.57297,4.45638 -4.11808,-2.7542 5.09022,0 -4.11807,2.7542 z"
         id="use4648"
         inkscape:connector-curvature="0"
         style="fill:#ffffff" />
      <path
         inkscape:connector-curvature="0"
         id="use4650"
         d="m 584.99417,827.8028 1.57297,4.45637 -4.11808,-2.75419 5.09022,0 -4.11807,2.75419 z"
         style="fill:#ffffff" />
      <path
         inkscape:connector-curvature="0"
         id="path5088"
         d="m 590.50245,797.62584 1.57297,4.45638 -4.11808,-2.7542 5.09022,0 -4.11807,2.7542 z"
         style="fill:#ffffff" />
      <path
         inkscape:connector-curvature="0"
         id="use5090"
         d="m 590.50245,806.24783 1.57297,4.45637 -4.11808,-2.75419 5.09022,0 -4.11807,2.75419 z"
         style="fill:#ffffff" />
      <path
         inkscape:connector-curvature="0"
         id="use5092"
         d="m 590.50245,814.86981 1.57297,4.45638 -4.11808,-2.75419 5.09022,0 -4.11807,2.75419 z"
         style="fill:#ffffff" />
      <path
         inkscape:connector-curvature="0"
         id="use5094"
         d="m 590.50245,823.4918 1.57297,4.45638 -4.11808,-2.7542 5.09022,0 -4.11807,2.7542 z"
         style="fill:#ffffff" />
      <path
         d="m 596.01074,793.31485 1.57297,4.45638 -4.11808,-2.7542 5.09022,0 -4.11807,2.7542 z"
         id="path4914"
         inkscape:connector-curvature="0"
         style="fill:#ffffff" />
      <path
         d="m 596.01074,801.93684 1.57297,4.45637 -4.11808,-2.75419 5.09022,0 -4.11807,2.75419 z"
         id="use4916"
         inkscape:connector-curvature="0"
         style="fill:#ffffff" />
      <path
         d="m 596.01074,810.55882 1.57297,4.45638 -4.11808,-2.75419 5.09022,0 -4.11807,2.75419 z"
         id="use4918"
         inkscape:connector-curvature="0"
         style="fill:#ffffff" />
      <path
         d="m 596.01074,819.18081 1.57297,4.45638 -4.11808,-2.7542 5.09022,0 -4.11807,2.7542 z"
         id="use4920"
         inkscape:connector-curvature="0"
         style="fill:#ffffff" />
      <path
         inkscape:connector-curvature="0"
         id="use4922"
         d="m 596.01074,827.8028 1.57297,4.45637 -4.11808,-2.75419 5.09022,0 -4.11807,2.75419 z"
         style="fill:#ffffff" />
      <path
         inkscape:connector-curvature="0"
         id="path5238"
         d="m 601.51902,797.62584 1.57297,4.45638 -4.11808,-2.7542 5.09022,0 -4.11807,2.7542 z"
         style="fill:#ffffff" />
      <path
         inkscape:connector-curvature="0"
         id="use5240"
         d="m 601.51902,806.24783 1.57297,4.45637 -4.11808,-2.75419 5.09022,0 -4.11807,2.75419 z"
         style="fill:#ffffff" />
      <path
         inkscape:connector-curvature="0"
         id="use5242"
         d="m 601.51902,814.86981 1.57297,4.45638 -4.11808,-2.75419 5.09022,0 -4.11807,2.75419 z"
         style="fill:#ffffff" />
      <path
         inkscape:connector-curvature="0"
         id="use5244"
         d="m 601.51902,823.4918 1.57297,4.45638 -4.11808,-2.7542 5.09022,0 -4.11807,2.7542 z"
         style="fill:#ffffff" />
      <path
         inkscape:connector-curvature="0"
         id="path4824"
         d="m 607.0273,793.31485 1.57297,4.45638 -4.11808,-2.7542 5.09022,0 -4.11807,2.7542 z"
         style="fill:#ffffff" />
      <path
         inkscape:connector-curvature="0"
         id="use4826"
         d="m 607.0273,801.93684 1.57297,4.45637 -4.11808,-2.75419 5.09022,0 -4.11807,2.75419 z"
         style="fill:#ffffff" />
      <path
         inkscape:connector-curvature="0"
         id="use4828"
         d="m 607.0273,810.55882 1.57297,4.45638 -4.11808,-2.75419 5.09022,0 -4.11807,2.75419 z"
         style="fill:#ffffff" />
      <path
         inkscape:connector-curvature="0"
         id="use4830"
         d="m 607.0273,819.18081 1.57297,4.45638 -4.11808,-2.7542 5.09022,0 -4.11807,2.7542 z"
         style="fill:#ffffff" />
      <path
         d="m 607.0273,827.8028 1.57297,4.45637 -4.11808,-2.75419 5.09022,0 -4.11807,2.75419 z"
         id="use4832"
         inkscape:connector-curvature="0"
         style="fill:#ffffff" />
      <path
         d="m 612.53558,797.62584 1.57297,4.45638 -4.11808,-2.7542 5.09022,0 -4.11807,2.7542 z"
         id="path5188"
         inkscape:connector-curvature="0"
         style="fill:#ffffff" />
      <path
         d="m 612.53558,806.24783 1.57297,4.45637 -4.11808,-2.75419 5.09022,0 -4.11807,2.75419 z"
         id="use5190"
         inkscape:connector-curvature="0"
         style="fill:#ffffff" />
      <path
         d="m 612.53558,814.86981 1.57297,4.45638 -4.11808,-2.75419 5.09022,0 -4.11807,2.75419 z"
         id="use5192"
         inkscape:connector-curvature="0"
         style="fill:#ffffff" />
      <path
         d="m 612.53558,823.4918 1.57297,4.45638 -4.11808,-2.7542 5.09022,0 -4.11807,2.7542 z"
         id="use5194"
         inkscape:connector-curvature="0"
         style="fill:#ffffff" />
      <path
         d="m 618.04387,793.31485 1.57297,4.45638 -4.11808,-2.7542 5.09022,0 -4.11807,2.7542 z"
         id="path4986"
         inkscape:connector-curvature="0"
         style="fill:#ffffff" />
      <path
         d="m 618.04387,801.93684 1.57297,4.45637 -4.11808,-2.75419 5.09022,0 -4.11807,2.75419 z"
         id="use4988"
         inkscape:connector-curvature="0"
         style="fill:#ffffff" />
      <path
         d="m 618.04387,810.55882 1.57297,4.45638 -4.11808,-2.75419 5.09022,0 -4.11807,2.75419 z"
         id="use4990"
         inkscape:connector-curvature="0"
         style="fill:#ffffff" />
      <path
         d="m 618.04387,819.18081 1.57297,4.45638 -4.11808,-2.7542 5.09022,0 -4.11807,2.7542 z"
         id="use4992"
         inkscape:connector-curvature="0"
         style="fill:#ffffff" />
      <path
         inkscape:connector-curvature="0"
         id="use4994"
         d="m 618.04387,827.8028 1.57297,4.45637 -4.11808,-2.75419 5.09022,0 -4.11807,2.75419 z"
         style="fill:#ffffff" />
      <path
         style="fill:none;fill-rule:evenodd;stroke:#000000;stroke-width:1px;stroke-linecap:butt;stroke-linejoin:miter;stroke-opacity:1"
         d="m 430.89828,991.55035 121.0685,-0.10483"
         id="path4544"
         inkscape:connector-curvature="0" />
      <path
         id="path5669"
         d="m 109.29065,874.18795 83.95936,0 0,83.95936 -1.60642,0 c -2.25571,-4.66254 -2.22212,-11.22256 -7.50597,-13.81971 -5.59729,-3.73899 -13.06407,-3.10649 -18.35911,-7.39962 -3.25762,-2.12137 -6.59361,-5.94992 -4.94801,-10.1143 2.11578,-4.29872 4.82487,-8.33996 5.92194,-13.08647 1.75755,-7.32685 2.2613,-15.65002 -1.90308,-22.28841 -2.87701,-5.61968 -9.55458,-8.56385 -15.68921,-8.09368 -4.69612,0.19031 -8.42952,3.67742 -11.44646,6.94624 -5.39579,7.29327 -4.88643,17.26204 -2.32847,25.52924 1.28178,4.17558 4.28193,7.58993 5.48535,11.7823 0.53734,3.95168 -2.47401,7.47238 -5.40699,9.7001 -6.11224,3.67742 -14.32906,3.60466 -19.33304,9.20195 -2.72028,3.36397 -3.33599,7.83621 -5.21108,11.64236 l -1.62881,0 0,-83.95936 z"
         inkscape:connector-curvature="0"
         style="fill:#ececec;fill-opacity:1;stroke:#000000;stroke-width:0.5597291;stroke-opacity:1" />
      <path
         id="path5671"
         d="m 137.71369,890.29136 c 3.01694,-3.26882 6.75034,-6.75593 11.44646,-6.94624 6.13463,-0.47017 12.8122,2.474 15.68921,8.09368 4.16438,6.63839 3.66063,14.96156 1.90308,22.28841 -1.09707,4.74651 -3.80616,8.78775 -5.92194,13.08647 -1.6456,4.16438 1.69039,7.99293 4.94801,10.1143 5.29504,4.29313 12.76182,3.66063 18.35911,7.39962 5.28385,2.59715 5.25026,9.15717 7.50597,13.81971 l -80.72413,0 c 1.87509,-3.80615 2.4908,-8.27839 5.21108,-11.64236 5.00398,-5.59729 13.2208,-5.52453 19.33304,-9.20195 2.93298,-2.22772 5.94433,-5.74842 5.40699,-9.7001 -1.20342,-4.19237 -4.20357,-7.60672 -5.48535,-11.7823 -2.55796,-8.2672 -3.06732,-18.23597 2.32847,-25.52924 z"
         inkscape:connector-curvature="0"
         style="fill:#535353;fill-opacity:1" />
      <path
         id="path5683"
         d="m 193.25001,897.85767 64.47652,-28.12224"
         style="fill:none;fill-rule:evenodd;stroke:#000000;stroke-width:1px;stroke-linecap:butt;stroke-linejoin:miter;stroke-opacity:1"
         inkscape:connector-curvature="0" />
      <path
         id="path5685"
         d="m 193.25001,932.56273 64.45827,25.17406"
         style="display:inline;fill:none;fill-rule:evenodd;stroke:#000000;stroke-width:1px;stroke-linecap:butt;stroke-linejoin:miter;stroke-opacity:1"
         inkscape:connector-curvature="0" />
      <path
         style="fill:#ececec;fill-opacity:1;stroke:#000000;stroke-width:0.5597291;stroke-opacity:1"
         inkscape:connector-curvature="0"
         d="m 770.4355,874.18795 83.95936,0 0,83.95936 -1.60642,0 c -2.25571,-4.66254 -2.22212,-11.22256 -7.50597,-13.81971 -5.59729,-3.73899 -13.06407,-3.10649 -18.35911,-7.39962 -3.25762,-2.12137 -6.59361,-5.94992 -4.94801,-10.1143 2.11578,-4.29872 4.82487,-8.33996 5.92194,-13.08647 1.75755,-7.32685 2.2613,-15.65002 -1.90308,-22.28841 -2.87701,-5.61968 -9.55458,-8.56385 -15.68921,-8.09368 -4.69612,0.19031 -8.42952,3.67742 -11.44646,6.94624 -5.39579,7.29327 -4.88643,17.26204 -2.32847,25.52924 1.28178,4.17558 4.28193,7.58993 5.48535,11.7823 0.53734,3.95168 -2.47401,7.47238 -5.40699,9.7001 -6.11224,3.67742 -14.32906,3.60466 -19.33304,9.20195 -2.72028,3.36397 -3.33599,7.83621 -5.21108,11.64236 l -1.62881,0 0,-83.95936 z"
         id="path5689" />
      <path
         style="fill:#535353;fill-opacity:1"
         inkscape:connector-curvature="0"
         d="m 798.85854,890.29136 c 3.01694,-3.26882 6.75034,-6.75593 11.44646,-6.94624 6.13463,-0.47017 12.8122,2.474 15.68921,8.09368 4.16438,6.63839 3.66063,14.96156 1.90308,22.28841 -1.09707,4.74651 -3.80616,8.78775 -5.92194,13.08647 -1.6456,4.16438 1.69039,7.99293 4.94801,10.1143 5.29504,4.29313 12.76182,3.66063 18.35911,7.39962 5.28385,2.59715 5.25026,9.15717 7.50597,13.81971 l -80.72413,0 c 1.87509,-3.80615 2.4908,-8.27839 5.21108,-11.64236 5.00398,-5.59729 13.2208,-5.52453 19.33304,-9.20195 2.93298,-2.22772 5.94433,-5.74842 5.40699,-9.7001 -1.20342,-4.19237 -4.20357,-7.60672 -5.48535,-11.7823 -2.55796,-8.2672 -3.06732,-18.23597 2.32847,-25.52924 z"
         id="path5691" />
      <path
         id="path5857"
         d="m 725.51962,873.47587 44.91588,22.06716"
         style="fill:none;fill-rule:evenodd;stroke:#000000;stroke-width:1px;stroke-linecap:butt;stroke-linejoin:miter;stroke-opacity:1"
         inkscape:connector-curvature="0" />
      <path
         id="path5859"
         d="M 727.15265,953.43651 770.4355,934.51726"
         style="display:inline;fill:none;fill-rule:evenodd;stroke:#000000;stroke-width:1px;stroke-linecap:butt;stroke-linejoin:miter;stroke-opacity:1"
         inkscape:connector-curvature="0" />
      <path
         id="rect6586"
         d="m 261.95615,950.32831 165.7044,0 0,41.42527 -165.7044,0 z"
         style="fill:#ffffff"
         inkscape:connector-curvature="0" />
      <path
         id="rect6588"
         d="m 261.95615,991.7536 165.7044,0 0,41.4253 -165.7044,0 z"
         style="fill:#d52b1e"
         inkscape:connector-curvature="0" />
      <path
         id="rect6590"
         d="m 261.95615,977.94519 165.7044,0 0,27.61681 -165.7044,0 z"
         style="fill:#0039a6"
         inkscape:connector-curvature="0" />
    </g>
    <g
       transform="matrix(0.55972909,0,0,0.55972909,10.72191,-48.92382)"
       id="g6519" />
    <g
       id="g10671"
       transform="translate(-6.294325,0)">
      <path
         id="path3642"
         d="m 198.43327,414.26149 0.002,7.7e-4"
         style="fill:#000000;fill-opacity:1;fill-rule:evenodd;stroke:#000000;stroke-width:0.4705857px;stroke-linecap:butt;stroke-linejoin:miter;stroke-opacity:1"
         inkscape:connector-curvature="0" />
      <path
         style="fill:#ececec;fill-rule:evenodd;stroke:#000000;stroke-width:1.09755027px;stroke-linecap:butt;stroke-linejoin:miter;stroke-opacity:1"
         d="m 570.82619,480.6431 160.34989,0 c 3.83652,0 6.92513,3.0886 6.92513,6.92513 l 0,74.94559 c 0,3.83652 -3.08861,6.92513 -6.92513,6.92513 l -160.34989,0 c -3.83652,0 -6.92513,-3.08861 -6.92513,-6.92513 l 0,-74.94559 c 0,-3.83653 3.08861,-6.92513 6.92513,-6.92513 z"
         id="rect5865"
         inkscape:connector-curvature="0" />
      <path
         style="fill:none;fill-rule:evenodd;stroke:#000000;stroke-width:1px;stroke-linecap:butt;stroke-linejoin:miter;stroke-opacity:1"
         d="m 444.19805,525.81513 121.0685,-0.1048"
         id="path6025"
         inkscape:connector-curvature="3" />
      <path
         style="fill:#000000;fill-opacity:1;fill-rule:evenodd;stroke:#000000;stroke-width:0.4705857px;stroke-linecap:butt;stroke-linejoin:miter;stroke-opacity:1"
         d="m 328.71221,477.17512 0,7.7e-4"
         id="path6027"
         inkscape:connector-curvature="3" />
      <path
         style="fill:#ececec;fill-rule:evenodd;stroke:#000000;stroke-width:1.09755027px;stroke-linecap:butt;stroke-linejoin:miter;stroke-opacity:1"
         d="m 277.22207,480.89877 160.34989,0 c 3.83652,0 6.92513,3.08861 6.92513,6.92513 l 0,74.9456 c 0,3.83652 -3.08861,6.92513 -6.92513,6.92513 l -160.34989,0 c -3.83653,0 -6.92513,-3.08861 -6.92513,-6.92513 l 0,-74.9456 c 0,-3.83652 3.0886,-6.92513 6.92513,-6.92513 z"
         id="rect6033"
         inkscape:connector-curvature="0" />
      <path
         inkscape:connector-curvature="0"
         id="rect6195"
         d="m 277.22205,320.89878 160.34989,0 c 3.83652,0 6.92513,3.0886 6.92513,6.92513 l 0,74.94559 c 0,3.83652 -3.08861,6.92513 -6.92513,6.92513 l -160.34989,0 c -3.83652,0 -6.92513,-3.08861 -6.92513,-6.92513 l 0,-74.94559 c 0,-3.83653 3.08861,-6.92513 6.92513,-6.92513 z"
         style="fill:#ececec;fill-rule:evenodd;stroke:#000000;stroke-width:1.09755027px;stroke-linecap:butt;stroke-linejoin:miter;stroke-opacity:1" />
      <path
         style="fill:#b22234"
         d="m 274.77275,325.26605 165.24848,0 0,80.06131 -165.24848,0 z"
         id="rect6199"
         inkscape:connector-curvature="0" />
      <path
         style="stroke:#ffffff;stroke-width:6.41889"
         inkscape:connector-curvature="0"
         d="m 274.77275,334.50389 165.24848,0 m 0,12.31713 -165.24848,0 m 0,12.31712 165.24848,0 m 0,12.31712 -165.24848,0 m 0,12.31713 165.24848,0 m 0,12.31712 -165.24848,0"
         id="path6201" />
      <path
         style="fill:#3c3b6e"
         d="m 274.77275,325.26605 66.09939,0 0,43.10993 -66.09939,0 z"
         id="rect6203"
         inkscape:connector-curvature="0" />
      <path
         d="m 280.28103,327.11362 1.57297,4.45638 -4.11808,-2.7542 5.09022,0 -4.11807,2.7542 z"
         id="path6215"
         inkscape:connector-curvature="0"
         style="fill:#ffffff" />
      <path
         inkscape:connector-curvature="0"
         id="path6217"
         d="m 280.28103,335.73561 1.57297,4.45637 -4.11808,-2.75419 5.09022,0 -4.11807,2.75419 z"
         style="fill:#ffffff" />
      <path
         inkscape:connector-curvature="0"
         id="path6219"
         d="m 280.28103,344.35759 1.57297,4.45638 -4.11808,-2.75419 5.09022,0 -4.11807,2.75419 z"
         style="fill:#ffffff" />
      <path
         inkscape:connector-curvature="0"
         id="path6221"
         d="m 280.28103,352.97958 1.57297,4.45638 -4.11808,-2.7542 5.09022,0 -4.11807,2.7542 z"
         style="fill:#ffffff" />
      <path
         d="m 280.28103,361.60157 1.57297,4.45637 -4.11808,-2.75419 5.09022,0 -4.11807,2.75419 z"
         id="path6223"
         inkscape:connector-curvature="0"
         style="fill:#ffffff" />
      <path
         d="m 285.78931,331.42461 1.57297,4.45638 -4.11808,-2.7542 5.09022,0 -4.11807,2.7542 z"
         id="path6227"
         inkscape:connector-curvature="0"
         style="fill:#ffffff" />
      <path
         d="m 285.78931,340.0466 1.57297,4.45637 -4.11808,-2.75419 5.09022,0 -4.11807,2.75419 z"
         id="path6229"
         inkscape:connector-curvature="0"
         style="fill:#ffffff" />
      <path
         d="m 285.78931,348.66858 1.57297,4.45638 -4.11808,-2.75419 5.09022,0 -4.11807,2.75419 z"
         id="path6231"
         inkscape:connector-curvature="0"
         style="fill:#ffffff" />
      <path
         d="m 285.78931,357.29057 1.57297,4.45638 -4.11808,-2.7542 5.09022,0 -4.11807,2.7542 z"
         id="path6233"
         inkscape:connector-curvature="0"
         style="fill:#ffffff" />
      <path
         inkscape:connector-curvature="0"
         id="path6241"
         d="m 291.2976,327.11362 1.57297,4.45638 -4.11808,-2.7542 5.09022,0 -4.11807,2.7542 z"
         style="fill:#ffffff" />
      <path
         inkscape:connector-curvature="0"
         id="path6243"
         d="m 291.2976,335.73561 1.57297,4.45637 -4.11808,-2.75419 5.09022,0 -4.11807,2.75419 z"
         style="fill:#ffffff" />
      <path
         inkscape:connector-curvature="0"
         id="path6245"
         d="m 291.2976,344.35759 1.57297,4.45638 -4.11808,-2.75419 5.09022,0 -4.11807,2.75419 z"
         style="fill:#ffffff" />
      <path
         inkscape:connector-curvature="0"
         id="path6247"
         d="m 291.2976,352.97958 1.57297,4.45638 -4.11808,-2.7542 5.09022,0 -4.11807,2.7542 z"
         style="fill:#ffffff" />
      <path
         d="m 291.2976,361.60157 1.57297,4.45637 -4.11808,-2.75419 5.09022,0 -4.11807,2.75419 z"
         id="path6249"
         inkscape:connector-curvature="0"
         style="fill:#ffffff" />
      <path
         d="m 296.80588,331.42461 1.57297,4.45638 -4.11808,-2.7542 5.09022,0 -4.11807,2.7542 z"
         id="path6253"
         inkscape:connector-curvature="0"
         style="fill:#ffffff" />
      <path
         d="m 296.80588,340.0466 1.57297,4.45637 -4.11808,-2.75419 5.09022,0 -4.11807,2.75419 z"
         id="path6255"
         inkscape:connector-curvature="0"
         style="fill:#ffffff" />
      <path
         d="m 296.80588,348.66858 1.57297,4.45638 -4.11808,-2.75419 5.09022,0 -4.11807,2.75419 z"
         id="path6257"
         inkscape:connector-curvature="0"
         style="fill:#ffffff" />
      <path
         d="m 296.80588,357.29057 1.57297,4.45638 -4.11808,-2.7542 5.09022,0 -4.11807,2.7542 z"
         id="path6259"
         inkscape:connector-curvature="0"
         style="fill:#ffffff" />
      <path
         inkscape:connector-curvature="0"
         id="path6269"
         d="m 302.31416,327.11362 1.57297,4.45638 -4.11808,-2.7542 5.09022,0 -4.11807,2.7542 z"
         style="fill:#ffffff" />
      <path
         inkscape:connector-curvature="0"
         id="path6271"
         d="m 302.31416,335.73561 1.57297,4.45637 -4.11808,-2.75419 5.09022,0 -4.11807,2.75419 z"
         style="fill:#ffffff" />
      <path
         inkscape:connector-curvature="0"
         id="path6273"
         d="m 302.31416,344.35759 1.57297,4.45638 -4.11808,-2.75419 5.09022,0 -4.11807,2.75419 z"
         style="fill:#ffffff" />
      <path
         inkscape:connector-curvature="0"
         id="path6275"
         d="m 302.31416,352.97958 1.57297,4.45638 -4.11808,-2.7542 5.09022,0 -4.11807,2.7542 z"
         style="fill:#ffffff" />
      <path
         d="m 302.31416,361.60157 1.57297,4.45637 -4.11808,-2.75419 5.09022,0 -4.11807,2.75419 z"
         id="path6277"
         inkscape:connector-curvature="0"
         style="fill:#ffffff" />
      <path
         d="m 307.82244,331.42461 1.57297,4.45638 -4.11808,-2.7542 5.09022,0 -4.11807,2.7542 z"
         id="path6281"
         inkscape:connector-curvature="0"
         style="fill:#ffffff" />
      <path
         d="m 307.82244,340.0466 1.57297,4.45637 -4.11808,-2.75419 5.09022,0 -4.11807,2.75419 z"
         id="path6283"
         inkscape:connector-curvature="0"
         style="fill:#ffffff" />
      <path
         d="m 307.82244,348.66858 1.57297,4.45638 -4.11808,-2.75419 5.09022,0 -4.11807,2.75419 z"
         id="path6285"
         inkscape:connector-curvature="0"
         style="fill:#ffffff" />
      <path
         d="m 307.82244,357.29057 1.57297,4.45638 -4.11808,-2.7542 5.09022,0 -4.11807,2.7542 z"
         id="path6287"
         inkscape:connector-curvature="0"
         style="fill:#ffffff" />
      <path
         inkscape:connector-curvature="0"
         id="path6295"
         d="m 313.33073,327.11362 1.57297,4.45638 -4.11808,-2.7542 5.09022,0 -4.11807,2.7542 z"
         style="fill:#ffffff" />
      <path
         inkscape:connector-curvature="0"
         id="path6297"
         d="m 313.33073,335.73561 1.57297,4.45637 -4.11808,-2.75419 5.09022,0 -4.11807,2.75419 z"
         style="fill:#ffffff" />
      <path
         inkscape:connector-curvature="0"
         id="path6299"
         d="m 313.33073,344.35759 1.57297,4.45638 -4.11808,-2.75419 5.09022,0 -4.11807,2.75419 z"
         style="fill:#ffffff" />
      <path
         inkscape:connector-curvature="0"
         id="path6301"
         d="m 313.33073,352.97958 1.57297,4.45638 -4.11808,-2.7542 5.09022,0 -4.11807,2.7542 z"
         style="fill:#ffffff" />
      <path
         d="m 313.33073,361.60157 1.57297,4.45637 -4.11808,-2.75419 5.09022,0 -4.11807,2.75419 z"
         id="path6303"
         inkscape:connector-curvature="0"
         style="fill:#ffffff" />
      <path
         d="m 318.83901,331.42461 1.57297,4.45638 -4.11808,-2.7542 5.09022,0 -4.11807,2.7542 z"
         id="path6307"
         inkscape:connector-curvature="0"
         style="fill:#ffffff" />
      <path
         d="m 318.83901,340.0466 1.57297,4.45637 -4.11808,-2.75419 5.09022,0 -4.11807,2.75419 z"
         id="path6309"
         inkscape:connector-curvature="0"
         style="fill:#ffffff" />
      <path
         d="m 318.83901,348.66858 1.57297,4.45638 -4.11808,-2.75419 5.09022,0 -4.11807,2.75419 z"
         id="path6311"
         inkscape:connector-curvature="0"
         style="fill:#ffffff" />
      <path
         d="m 318.83901,357.29057 1.57297,4.45638 -4.11808,-2.7542 5.09022,0 -4.11807,2.7542 z"
         id="path6313"
         inkscape:connector-curvature="0"
         style="fill:#ffffff" />
      <path
         d="m 324.34729,327.11362 1.57297,4.45638 -4.11808,-2.7542 5.09022,0 -4.11807,2.7542 z"
         id="path6321"
         inkscape:connector-curvature="0"
         style="fill:#ffffff" />
      <path
         d="m 324.34729,335.73561 1.57297,4.45637 -4.11808,-2.75419 5.09022,0 -4.11807,2.75419 z"
         id="path6323"
         inkscape:connector-curvature="0"
         style="fill:#ffffff" />
      <path
         d="m 324.34729,344.35759 1.57297,4.45638 -4.11808,-2.75419 5.09022,0 -4.11807,2.75419 z"
         id="path6325"
         inkscape:connector-curvature="0"
         style="fill:#ffffff" />
      <path
         d="m 324.34729,352.97958 1.57297,4.45638 -4.11808,-2.7542 5.09022,0 -4.11807,2.7542 z"
         id="path6327"
         inkscape:connector-curvature="0"
         style="fill:#ffffff" />
      <path
         inkscape:connector-curvature="0"
         id="path6329"
         d="m 324.34729,361.60157 1.57297,4.45637 -4.11808,-2.75419 5.09022,0 -4.11807,2.75419 z"
         style="fill:#ffffff" />
      <path
         inkscape:connector-curvature="0"
         id="path6333"
         d="m 329.85557,331.42461 1.57297,4.45638 -4.11808,-2.7542 5.09022,0 -4.11807,2.7542 z"
         style="fill:#ffffff" />
      <path
         inkscape:connector-curvature="0"
         id="path6335"
         d="m 329.85557,340.0466 1.57297,4.45637 -4.11808,-2.75419 5.09022,0 -4.11807,2.75419 z"
         style="fill:#ffffff" />
      <path
         inkscape:connector-curvature="0"
         id="path6337"
         d="m 329.85557,348.66858 1.57297,4.45638 -4.11808,-2.75419 5.09022,0 -4.11807,2.75419 z"
         style="fill:#ffffff" />
      <path
         inkscape:connector-curvature="0"
         id="path6339"
         d="m 329.85557,357.29057 1.57297,4.45638 -4.11808,-2.7542 5.09022,0 -4.11807,2.7542 z"
         style="fill:#ffffff" />
      <path
         inkscape:connector-curvature="0"
         id="path6345"
         d="m 335.36386,327.11362 1.57297,4.45638 -4.11808,-2.7542 5.09022,0 -4.11807,2.7542 z"
         style="fill:#ffffff" />
      <path
         inkscape:connector-curvature="0"
         id="path6347"
         d="m 335.36386,335.73561 1.57297,4.45637 -4.11808,-2.75419 5.09022,0 -4.11807,2.75419 z"
         style="fill:#ffffff" />
      <path
         inkscape:connector-curvature="0"
         id="path6349"
         d="m 335.36386,344.35759 1.57297,4.45638 -4.11808,-2.75419 5.09022,0 -4.11807,2.75419 z"
         style="fill:#ffffff" />
      <path
         inkscape:connector-curvature="0"
         id="path6351"
         d="m 335.36386,352.97958 1.57297,4.45638 -4.11808,-2.7542 5.09022,0 -4.11807,2.7542 z"
         style="fill:#ffffff" />
      <path
         d="m 335.36386,361.60157 1.57297,4.45637 -4.11808,-2.75419 5.09022,0 -4.11807,2.75419 z"
         id="path6353"
         inkscape:connector-curvature="0"
         style="fill:#ffffff" />
      <path
         inkscape:connector-curvature="0"
         id="rect6357"
         d="m 572.49069,320.64311 160.34989,0 c 3.83652,0 6.92513,3.0886 6.92513,6.92513 l 0,74.94559 c 0,3.83652 -3.08861,6.92513 -6.92513,6.92513 l -160.34989,0 c -3.83652,0 -6.92513,-3.08861 -6.92513,-6.92513 l 0,-74.94559 c 0,-3.83653 3.08861,-6.92513 6.92513,-6.92513 z"
         style="fill:#ececec;fill-rule:evenodd;stroke:#000000;stroke-width:1.09755027px;stroke-linecap:butt;stroke-linejoin:miter;stroke-opacity:1" />
      <path
         style="fill:#b22234"
         d="m 570.04139,325.01038 165.24848,0 0,80.06131 -165.24848,0 z"
         id="rect6361"
         inkscape:connector-curvature="0" />
      <path
         id="path6363"
         d="m 570.04139,334.24822 165.24848,0 m 0,12.31713 -165.24848,0 m 0,12.31712 165.24848,0 m 0,12.31712 -165.24848,0 m 0,12.31713 165.24848,0 m 0,12.31712 -165.24848,0"
         inkscape:connector-curvature="0"
         style="stroke:#ffffff;stroke-width:6.41889" />
      <path
         style="fill:#3c3b6e"
         d="m 570.04139,325.01038 66.09939,0 0,43.10993 -66.09939,0 z"
         id="rect6365"
         inkscape:connector-curvature="0" />
      <path
         inkscape:connector-curvature="0"
         id="path6377"
         d="m 575.54967,326.85795 1.57297,4.45638 -4.11808,-2.7542 5.09022,0 -4.11807,2.7542 z"
         style="fill:#ffffff" />
      <path
         inkscape:connector-curvature="0"
         id="path6379"
         d="m 575.54967,335.47994 1.57297,4.45637 -4.11808,-2.75419 5.09022,0 -4.11807,2.75419 z"
         style="fill:#ffffff" />
      <path
         inkscape:connector-curvature="0"
         id="path6381"
         d="m 575.54967,344.10192 1.57297,4.45638 -4.11808,-2.75419 5.09022,0 -4.11807,2.75419 z"
         style="fill:#ffffff" />
      <path
         inkscape:connector-curvature="0"
         id="path6383"
         d="m 575.54967,352.72391 1.57297,4.45638 -4.11808,-2.7542 5.09022,0 -4.11807,2.7542 z"
         style="fill:#ffffff" />
      <path
         d="m 575.54967,361.3459 1.57297,4.45637 -4.11808,-2.75419 5.09022,0 -4.11807,2.75419 z"
         id="path6385"
         inkscape:connector-curvature="0"
         style="fill:#ffffff" />
      <path
         d="m 581.05795,331.16894 1.57297,4.45638 -4.11808,-2.7542 5.09022,0 -4.11807,2.7542 z"
         id="path6389"
         inkscape:connector-curvature="0"
         style="fill:#ffffff" />
      <path
         d="m 581.05795,339.79093 1.57297,4.45637 -4.11808,-2.75419 5.09022,0 -4.11807,2.75419 z"
         id="path6391"
         inkscape:connector-curvature="0"
         style="fill:#ffffff" />
      <path
         d="m 581.05795,348.41291 1.57297,4.45638 -4.11808,-2.75419 5.09022,0 -4.11807,2.75419 z"
         id="path6393"
         inkscape:connector-curvature="0"
         style="fill:#ffffff" />
      <path
         d="m 581.05795,357.0349 1.57297,4.45638 -4.11808,-2.7542 5.09022,0 -4.11807,2.7542 z"
         id="path6395"
         inkscape:connector-curvature="0"
         style="fill:#ffffff" />
      <path
         inkscape:connector-curvature="0"
         id="path6403"
         d="m 586.56624,326.85795 1.57297,4.45638 -4.11808,-2.7542 5.09022,0 -4.11807,2.7542 z"
         style="fill:#ffffff" />
      <path
         inkscape:connector-curvature="0"
         id="path6405"
         d="m 586.56624,335.47994 1.57297,4.45637 -4.11808,-2.75419 5.09022,0 -4.11807,2.75419 z"
         style="fill:#ffffff" />
      <path
         inkscape:connector-curvature="0"
         id="path6407"
         d="m 586.56624,344.10192 1.57297,4.45638 -4.11808,-2.75419 5.09022,0 -4.11807,2.75419 z"
         style="fill:#ffffff" />
      <path
         inkscape:connector-curvature="0"
         id="path6409"
         d="m 586.56624,352.72391 1.57297,4.45638 -4.11808,-2.7542 5.09022,0 -4.11807,2.7542 z"
         style="fill:#ffffff" />
      <path
         d="m 586.56624,361.3459 1.57297,4.45637 -4.11808,-2.75419 5.09022,0 -4.11807,2.75419 z"
         id="path6411"
         inkscape:connector-curvature="0"
         style="fill:#ffffff" />
      <path
         d="m 592.07452,331.16894 1.57297,4.45638 -4.11808,-2.7542 5.09022,0 -4.11807,2.7542 z"
         id="path6415"
         inkscape:connector-curvature="0"
         style="fill:#ffffff" />
      <path
         d="m 592.07452,339.79093 1.57297,4.45637 -4.11808,-2.75419 5.09022,0 -4.11807,2.75419 z"
         id="path6417"
         inkscape:connector-curvature="0"
         style="fill:#ffffff" />
      <path
         d="m 592.07452,348.41291 1.57297,4.45638 -4.11808,-2.75419 5.09022,0 -4.11807,2.75419 z"
         id="path6419"
         inkscape:connector-curvature="0"
         style="fill:#ffffff" />
      <path
         d="m 592.07452,357.0349 1.57297,4.45638 -4.11808,-2.7542 5.09022,0 -4.11807,2.7542 z"
         id="path6421"
         inkscape:connector-curvature="0"
         style="fill:#ffffff" />
      <path
         inkscape:connector-curvature="0"
         id="path6431"
         d="m 597.5828,326.85795 1.57297,4.45638 -4.11808,-2.7542 5.09022,0 -4.11807,2.7542 z"
         style="fill:#ffffff" />
      <path
         inkscape:connector-curvature="0"
         id="path6433"
         d="m 597.5828,335.47994 1.57297,4.45637 -4.11808,-2.75419 5.09022,0 -4.11807,2.75419 z"
         style="fill:#ffffff" />
      <path
         inkscape:connector-curvature="0"
         id="path6435"
         d="m 597.5828,344.10192 1.57297,4.45638 -4.11808,-2.75419 5.09022,0 -4.11807,2.75419 z"
         style="fill:#ffffff" />
      <path
         inkscape:connector-curvature="0"
         id="path6437"
         d="m 597.5828,352.72391 1.57297,4.45638 -4.11808,-2.7542 5.09022,0 -4.11807,2.7542 z"
         style="fill:#ffffff" />
      <path
         d="m 597.5828,361.3459 1.57297,4.45637 -4.11808,-2.75419 5.09022,0 -4.11807,2.75419 z"
         id="path6439"
         inkscape:connector-curvature="0"
         style="fill:#ffffff" />
      <path
         d="m 603.09108,331.16894 1.57297,4.45638 -4.11808,-2.7542 5.09022,0 -4.11807,2.7542 z"
         id="path6443"
         inkscape:connector-curvature="0"
         style="fill:#ffffff" />
      <path
         d="m 603.09108,339.79093 1.57297,4.45637 -4.11808,-2.75419 5.09022,0 -4.11807,2.75419 z"
         id="path6445"
         inkscape:connector-curvature="0"
         style="fill:#ffffff" />
      <path
         d="m 603.09108,348.41291 1.57297,4.45638 -4.11808,-2.75419 5.09022,0 -4.11807,2.75419 z"
         id="path6447"
         inkscape:connector-curvature="0"
         style="fill:#ffffff" />
      <path
         d="m 603.09108,357.0349 1.57297,4.45638 -4.11808,-2.7542 5.09022,0 -4.11807,2.7542 z"
         id="path6449"
         inkscape:connector-curvature="0"
         style="fill:#ffffff" />
      <path
         inkscape:connector-curvature="0"
         id="path6457"
         d="m 608.59937,326.85795 1.57297,4.45638 -4.11808,-2.7542 5.09022,0 -4.11807,2.7542 z"
         style="fill:#ffffff" />
      <path
         inkscape:connector-curvature="0"
         id="path6459"
         d="m 608.59937,335.47994 1.57297,4.45637 -4.11808,-2.75419 5.09022,0 -4.11807,2.75419 z"
         style="fill:#ffffff" />
      <path
         inkscape:connector-curvature="0"
         id="path6461"
         d="m 608.59937,344.10192 1.57297,4.45638 -4.11808,-2.75419 5.09022,0 -4.11807,2.75419 z"
         style="fill:#ffffff" />
      <path
         inkscape:connector-curvature="0"
         id="path6463"
         d="m 608.59937,352.72391 1.57297,4.45638 -4.11808,-2.7542 5.09022,0 -4.11807,2.7542 z"
         style="fill:#ffffff" />
      <path
         d="m 608.59937,361.3459 1.57297,4.45637 -4.11808,-2.75419 5.09022,0 -4.11807,2.75419 z"
         id="path6465"
         inkscape:connector-curvature="0"
         style="fill:#ffffff" />
      <path
         d="m 614.10765,331.16894 1.57297,4.45638 -4.11808,-2.7542 5.09022,0 -4.11807,2.7542 z"
         id="path6469"
         inkscape:connector-curvature="0"
         style="fill:#ffffff" />
      <path
         d="m 614.10765,339.79093 1.57297,4.45637 -4.11808,-2.75419 5.09022,0 -4.11807,2.75419 z"
         id="path6471"
         inkscape:connector-curvature="0"
         style="fill:#ffffff" />
      <path
         d="m 614.10765,348.41291 1.57297,4.45638 -4.11808,-2.75419 5.09022,0 -4.11807,2.75419 z"
         id="path6473"
         inkscape:connector-curvature="0"
         style="fill:#ffffff" />
      <path
         d="m 614.10765,357.0349 1.57297,4.45638 -4.11808,-2.7542 5.09022,0 -4.11807,2.7542 z"
         id="path6475"
         inkscape:connector-curvature="0"
         style="fill:#ffffff" />
      <path
         d="m 619.61593,326.85795 1.57297,4.45638 -4.11808,-2.7542 5.09022,0 -4.11807,2.7542 z"
         id="path6483"
         inkscape:connector-curvature="0"
         style="fill:#ffffff" />
      <path
         d="m 619.61593,335.47994 1.57297,4.45637 -4.11808,-2.75419 5.09022,0 -4.11807,2.75419 z"
         id="path6485"
         inkscape:connector-curvature="0"
         style="fill:#ffffff" />
      <path
         d="m 619.61593,344.10192 1.57297,4.45638 -4.11808,-2.75419 5.09022,0 -4.11807,2.75419 z"
         id="path6487"
         inkscape:connector-curvature="0"
         style="fill:#ffffff" />
      <path
         d="m 619.61593,352.72391 1.57297,4.45638 -4.11808,-2.7542 5.09022,0 -4.11807,2.7542 z"
         id="path6489"
         inkscape:connector-curvature="0"
         style="fill:#ffffff" />
      <path
         inkscape:connector-curvature="0"
         id="path6491"
         d="m 619.61593,361.3459 1.57297,4.45637 -4.11808,-2.75419 5.09022,0 -4.11807,2.75419 z"
         style="fill:#ffffff" />
      <path
         inkscape:connector-curvature="0"
         id="path6495"
         d="m 625.12421,331.16894 1.57297,4.45638 -4.11808,-2.7542 5.09022,0 -4.11807,2.7542 z"
         style="fill:#ffffff" />
      <path
         inkscape:connector-curvature="0"
         id="path6497"
         d="m 625.12421,339.79093 1.57297,4.45637 -4.11808,-2.75419 5.09022,0 -4.11807,2.75419 z"
         style="fill:#ffffff" />
      <path
         inkscape:connector-curvature="0"
         id="path6499"
         d="m 625.12421,348.41291 1.57297,4.45638 -4.11808,-2.75419 5.09022,0 -4.11807,2.75419 z"
         style="fill:#ffffff" />
      <path
         inkscape:connector-curvature="0"
         id="path6501"
         d="m 625.12421,357.0349 1.57297,4.45638 -4.11808,-2.7542 5.09022,0 -4.11807,2.7542 z"
         style="fill:#ffffff" />
      <path
         inkscape:connector-curvature="0"
         id="path6507"
         d="m 630.6325,326.85795 1.57297,4.45638 -4.11808,-2.7542 5.09022,0 -4.11807,2.7542 z"
         style="fill:#ffffff" />
      <path
         inkscape:connector-curvature="0"
         id="path6509"
         d="m 630.6325,335.47994 1.57297,4.45637 -4.11808,-2.75419 5.09022,0 -4.11807,2.75419 z"
         style="fill:#ffffff" />
      <path
         inkscape:connector-curvature="0"
         id="path6511"
         d="m 630.6325,344.10192 1.57297,4.45638 -4.11808,-2.75419 5.09022,0 -4.11807,2.75419 z"
         style="fill:#ffffff" />
      <path
         inkscape:connector-curvature="0"
         id="path6513"
         d="m 630.6325,352.72391 1.57297,4.45638 -4.11808,-2.7542 5.09022,0 -4.11807,2.7542 z"
         style="fill:#ffffff" />
      <path
         d="m 630.6325,361.3459 1.57297,4.45637 -4.11808,-2.75419 5.09022,0 -4.11807,2.75419 z"
         id="path6515"
         inkscape:connector-curvature="0"
         style="fill:#ffffff" />
      <path
         id="path6517"
         d="m 444.19805,365.81512 121.0685,-0.10483"
         style="fill:none;fill-rule:evenodd;stroke:#000000;stroke-width:1px;stroke-linecap:butt;stroke-linejoin:miter;stroke-opacity:1"
         inkscape:connector-curvature="3" />
      <path
         id="path6521"
         d="m 121.8793,407.73105 83.95936,0 0,83.95936 -1.60642,0 c -2.25571,-4.66254 -2.22212,-11.22256 -7.50597,-13.81971 -5.59729,-3.73899 -13.06407,-3.10649 -18.35911,-7.39962 -3.25762,-2.12137 -6.59361,-5.94992 -4.94801,-10.1143 2.11578,-4.29872 4.82487,-8.33996 5.92194,-13.08647 1.75755,-7.32685 2.2613,-15.65002 -1.90308,-22.28841 -2.87701,-5.61968 -9.55458,-8.56385 -15.68921,-8.09368 -4.69612,0.19031 -8.42952,3.67742 -11.44646,6.94624 -5.39579,7.29327 -4.88643,17.26204 -2.32847,25.52924 1.28178,4.17558 4.28193,7.58993 5.48535,11.7823 0.53734,3.95168 -2.47401,7.47238 -5.40699,9.7001 -6.11224,3.67742 -14.32906,3.60466 -19.33304,9.20195 -2.72028,3.36397 -3.33599,7.83621 -5.21108,11.64236 l -1.62881,0 0,-83.95936 z"
         inkscape:connector-curvature="0"
         style="fill:#ececec;fill-opacity:1;stroke:#000000;stroke-width:0.5597291;stroke-opacity:1" />
      <path
         id="path6523"
         d="m 150.30234,423.83446 c 3.01694,-3.26882 6.75034,-6.75593 11.44646,-6.94624 6.13463,-0.47017 12.8122,2.474 15.68921,8.09368 4.16438,6.63839 3.66063,14.96156 1.90308,22.28841 -1.09707,4.74651 -3.80616,8.78775 -5.92194,13.08647 -1.6456,4.16438 1.69039,7.99293 4.94801,10.1143 5.29504,4.29313 12.76182,3.66063 18.35911,7.39962 5.28385,2.59715 5.25026,9.15717 7.50597,13.81971 l -80.72413,0 c 1.87509,-3.80615 2.4908,-8.27839 5.21108,-11.64236 5.00398,-5.59729 13.2208,-5.52453 19.33304,-9.20195 2.93298,-2.22772 5.94433,-5.74842 5.40699,-9.7001 -1.20342,-4.19237 -4.20357,-7.60672 -5.48535,-11.7823 -2.55796,-8.2672 -3.06732,-18.23597 2.32847,-25.52924 z"
         inkscape:connector-curvature="0"
         style="fill:#535353;fill-opacity:1" />
      <path
         style="fill:none;fill-rule:evenodd;stroke:#000000;stroke-width:1px;stroke-linecap:butt;stroke-linejoin:miter;stroke-opacity:1"
         d="m 205.53965,431.99461 64.47651,-28.12224"
         id="path6525"
         inkscape:connector-curvature="3" />
      <path
         style="fill:none;fill-rule:evenodd;stroke:#000000;stroke-width:1px;stroke-linecap:butt;stroke-linejoin:miter;stroke-opacity:1"
         d="m 205.53965,466.69963 64.45821,25.1741"
         id="path6527"
         inkscape:connector-curvature="3" />
      <path
         id="path6531"
         d="m 783.02411,407.73105 83.95936,0 0,83.95936 -1.60642,0 c -2.25571,-4.66254 -2.22212,-11.22256 -7.50597,-13.81971 -5.59729,-3.73899 -13.06407,-3.10649 -18.35911,-7.39962 -3.25762,-2.12137 -6.59361,-5.94992 -4.94801,-10.1143 2.11578,-4.29872 4.82487,-8.33996 5.92194,-13.08647 1.75755,-7.32685 2.2613,-15.65002 -1.90308,-22.28841 -2.87701,-5.61968 -9.55458,-8.56385 -15.68921,-8.09368 -4.69612,0.19031 -8.42952,3.67742 -11.44646,6.94624 -5.39579,7.29327 -4.88643,17.26204 -2.32847,25.52924 1.28178,4.17558 4.28193,7.58993 5.48535,11.7823 0.53734,3.95168 -2.47401,7.47238 -5.40699,9.7001 -6.11224,3.67742 -14.32906,3.60466 -19.33304,9.20195 -2.72028,3.36397 -3.33599,7.83621 -5.21108,11.64236 l -1.62881,0 0,-83.95936 z"
         inkscape:connector-curvature="0"
         style="fill:#ececec;fill-opacity:1;stroke:#000000;stroke-width:0.5597291;stroke-opacity:1" />
      <path
         id="path6533"
         d="m 811.44715,423.83446 c 3.01694,-3.26882 6.75034,-6.75593 11.44646,-6.94624 6.13463,-0.47017 12.8122,2.474 15.68921,8.09368 4.16438,6.63839 3.66063,14.96156 1.90308,22.28841 -1.09707,4.74651 -3.80616,8.78775 -5.92194,13.08647 -1.6456,4.16438 1.69039,7.99293 4.94801,10.1143 5.29504,4.29313 12.76182,3.66063 18.35911,7.39962 5.28385,2.59715 5.25026,9.15717 7.50597,13.81971 l -80.72413,0 c 1.87509,-3.80615 2.4908,-8.27839 5.21108,-11.64236 5.00398,-5.59729 13.2208,-5.52453 19.33304,-9.20195 2.93298,-2.22772 5.94433,-5.74842 5.40699,-9.7001 -1.20342,-4.19237 -4.20357,-7.60672 -5.48535,-11.7823 -2.55796,-8.2672 -3.06732,-18.23597 2.32847,-25.52924 z"
         inkscape:connector-curvature="0"
         style="fill:#535353;fill-opacity:1" />
      <path
         style="fill:none;fill-rule:evenodd;stroke:#000000;stroke-width:1px;stroke-linecap:butt;stroke-linejoin:miter;stroke-opacity:1"
         d="m 737.80915,407.61281 44.9159,22.06716"
         id="path6535"
         inkscape:connector-curvature="3" />
      <path
         style="fill:none;fill-rule:evenodd;stroke:#000000;stroke-width:1px;stroke-linecap:butt;stroke-linejoin:miter;stroke-opacity:1"
         d="m 739.44225,487.57343 43.2828,-18.9192"
         id="path6537"
         inkscape:connector-curvature="3" />
      <path
         inkscape:connector-curvature="0"
         id="rect7249"
         d="m 274.54481,483.87142 165.7044,0 0,41.42527 -165.7044,0 z"
         style="fill:#ffffff" />
      <path
         inkscape:connector-curvature="0"
         id="rect7251"
         d="m 274.54481,525.29669 165.7044,0 0,41.42528 -165.7044,0 z"
         style="fill:#d52b1e" />
      <path
         inkscape:connector-curvature="0"
         id="rect7253"
         d="m 274.54481,511.48827 165.7044,0 0,27.61685 -165.7044,0 z"
         style="fill:#0039a6" />
      <path
         inkscape:connector-curvature="0"
         id="rect7257"
         d="m 568.14891,483.61574 165.7044,0 0,41.42528 -165.7044,0 z"
         style="fill:#ffffff" />
      <path
         inkscape:connector-curvature="0"
         id="rect7259"
         d="m 568.14891,525.04102 165.7044,0 0,41.42527 -165.7044,0 z"
         style="fill:#d52b1e" />
      <path
         inkscape:connector-curvature="0"
         id="rect7261"
         d="m 568.14891,511.23259 165.7044,0 0,27.61685 -165.7044,0 z"
         style="fill:#0039a6" />
    </g>
    <text
       xml:space="preserve"
       style="font-style:normal;font-variant:normal;font-weight:normal;font-stretch:normal;font-size:50px;line-height:125%;font-family:Calibri;-inkscape-font-specification:'Calibri, Normal';text-align:start;letter-spacing:0px;word-spacing:0px;writing-mode:lr-tb;text-anchor:start;fill:#000000;fill-opacity:1;stroke:none;stroke-width:1px;stroke-linecap:butt;stroke-linejoin:miter;stroke-opacity:1"
       x="200.06332"
       y="646.13873"
       id="text12450"
       sodipodi:linespacing="125%"><tspan
         sodipodi:role="line"
         id="tspan12452"
         x="200.06332"
         y="646.13873">connectable: both avoidable</tspan></text>
    <text
       xml:space="preserve"
       style="font-style:normal;font-variant:normal;font-weight:normal;font-stretch:normal;font-size:50px;line-height:125%;font-family:Calibri;-inkscape-font-specification:'Calibri, Normal';text-align:start;letter-spacing:0px;word-spacing:0px;writing-mode:lr-tb;text-anchor:start;fill:#000000;fill-opacity:1;stroke:none;stroke-width:1px;stroke-linecap:butt;stroke-linejoin:miter;stroke-opacity:1"
       x="124.58726"
       y="1061.9967"
       id="text12454"
       sodipodi:linespacing="125%"><tspan
         sodipodi:role="line"
         id="tspan12456"
         x="124.58726"
         y="1061.9967">not connectable: USA not avoidable</tspan></text>
  </g>
</svg>
